<svg width="16" height="16" viewBox="0 0 16 16" fill="none" xmlns="http://www.w3.org/2000/svg">
<g clip-path="url(#clip0_13_237)">
<path d="M8 1.33337C4.31333 1.33337 1.33333 4.31337 1.33333 8.00004C1.33333 11.6867 4.31333 14.6667 8 14.6667C11.6867 14.6667 14.6667 11.6867 14.6667 8.00004C14.6667 4.31337 11.6867 1.33337 8 1.33337ZM8 13.3334C5.06 13.3334 2.66667 10.94 2.66667 8.00004C2.66667 5.06004 5.06 2.66671 8 2.66671C10.94 2.66671 13.3333 5.06004 13.3333 8.00004C13.3333 10.94 10.94 13.3334 8 13.3334ZM10.3933 4.66671L8 7.06004L5.60667 4.66671L4.66667 5.60671L7.06 8.00004L4.66667 10.3934L5.60667 11.3334L8 8.94004L10.3933 11.3334L11.3333 10.3934L8.94 8.00004L11.3333 5.60671L10.3933 4.66671Z" fill="#F9F9F9"/>
</g>
<defs>
<clipPath id="clip0_13_237">
<rect width="16" height="16" fill="white"/>
</clipPath>
</defs>
</svg>
