<svg width="16" height="16" viewBox="0 0 16 16" fill="none" xmlns="http://www.w3.org/2000/svg">
<g clip-path="url(#clip0_15_262)">
<path d="M6.22222 13.3333V11.5556H7.6L9.93333 8.88889L7.6 6.22222H6.13333L4.71111 13.8667C4.59259 14.5333 4.31852 15.0557 3.88889 15.4338C3.45926 15.8113 2.91111 16 2.24444 16C1.57778 16 1.03704 15.8222 0.622222 15.4667C0.207407 15.1111 0 14.637 0 14.0444C0 13.5704 0.125926 13.1887 0.377778 12.8996C0.62963 12.611 0.948148 12.4667 1.33333 12.4667C1.7037 12.4667 2.01837 12.5926 2.27733 12.8444C2.53689 13.0963 2.66667 13.4 2.66667 13.7556C2.66667 13.8296 2.66311 13.8963 2.656 13.9556C2.6483 14.0148 2.63704 14.0815 2.62222 14.1556C2.6963 14.1407 2.75911 14.1001 2.81067 14.0338C2.86281 13.9668 2.9037 13.8741 2.93333 13.7556L4.31111 6.22222H1.77778V4.44444H4.64444L5.11111 1.91111C5.21481 1.34815 5.49274 0.888889 5.94489 0.533333C6.39644 0.177778 6.93333 0 7.55556 0C8.20741 0 8.74074 0.192593 9.15556 0.577778C9.57037 0.962963 9.77778 1.44444 9.77778 2.02222C9.77778 2.46667 9.65185 2.83319 9.4 3.12178C9.14815 3.41096 8.82963 3.55556 8.44444 3.55556C8.07407 3.55556 7.75941 3.42963 7.50044 3.17778C7.24089 2.92593 7.11111 2.61481 7.11111 2.24444C7.11111 2.17037 7.11467 2.1037 7.12178 2.04444C7.12948 1.98519 7.14074 1.91852 7.15556 1.84444C7.06667 1.87407 7 1.91852 6.95556 1.97778C6.91111 2.03704 6.87407 2.12593 6.84444 2.24444L6.46667 4.44444H10.6667V6.22222H9.95556L11.1111 7.53333L12.2667 6.22222H11.5556V4.44444H16V6.22222H14.6222L12.2889 8.88889L14.6222 11.5556H16V13.3333H11.5556V11.5556H12.2667L11.1111 10.2222L9.95556 11.5556H10.6667V13.3333H6.22222Z" fill="#F9F9F9"/>
</g>
<defs>
<clipPath id="clip0_15_262">
<rect width="16" height="16" fill="white"/>
</clipPath>
</defs>
</svg>
